<svg xmlns="http://www.w3.org/2000/svg" viewBox="0 0 512 512">
  <defs>
    <radialGradient id="bg" cx="60%" cy="30%" r="90%">
      <stop offset="0%" stop-color="#1c2350"/>
      <stop offset="55%" stop-color="#141a3a"/>
      <stop offset="100%" stop-color="#0a0c1e"/>
    </radialGradient>
    <linearGradient id="star" x1="0" y1="0" x2="1" y2="1">
      <stop offset="0%" stop-color="#eaf0ff"/>
      <stop offset="100%" stop-color="#bcd0ff"/>
    </linearGradient>
  </defs>
  <rect width="512" height="512" rx="112" fill="url(#bg)"/>
  <!-- мелкие звёзды -->
  <g fill="#ffffff" opacity="0.7">
    <circle cx="90" cy="110" r="3"/><circle cx="150" cy="70" r="2"/><circle cx="420" cy="120" r="3"/>
    <circle cx="380" cy="60" r="2"/><circle cx="70" cy="300" r="2"/><circle cx="450" cy="320" r="2.5"/>
    <circle cx="120" cy="420" r="2"/><circle cx="400" cy="440" r="3"/>
  </g>
  <!-- созвездие в форме сердца -->
  <g stroke="#bcd0ff" stroke-width="3" opacity="0.5" fill="none">
    <path d="M256 360 L170 250 L210 175 L256 215 L302 175 L342 250 Z"/>
  </g>
  <g fill="url(#star)">
    <circle cx="256" cy="360" r="9"/><circle cx="170" cy="250" r="8"/><circle cx="210" cy="175" r="7"/>
    <circle cx="256" cy="215" r="10"/><circle cx="302" cy="175" r="7"/><circle cx="342" cy="250" r="8"/>
  </g>
  <g fill="#bcd0ff" opacity="0.3">
    <circle cx="256" cy="360" r="18"/><circle cx="256" cy="215" r="20"/><circle cx="170" cy="250" r="16"/><circle cx="342" cy="250" r="16"/>
  </g>
  <!-- луна -->
  <circle cx="410" cy="180" r="26" fill="#fff4dc"/>
  <circle cx="398" cy="172" r="20" fill="url(#bg)"/>
</svg>
